<svg xmlns="http://www.w3.org/2000/svg" width="64" height="64" viewBox="0 0 64 64">
  <rect width="64" height="64" rx="14" fill="#23272e"/>
  <g transform="rotate(-32 32 32)">
    <!-- blade -->
    <path d="M12 31 L41 28 Q45 28 45 32 Q45 36 41 36 L12 33 Z" fill="#eaecef"/>
    <!-- edge shadow -->
    <path d="M12 33 L41 36 Q45 36 45 32 L45 33 Q45 35 41 35 L12 33 Z" fill="#aeb5c0"/>
    <!-- bolster -->
    <rect x="45" y="27" width="5" height="10" rx="1.5" fill="#d3d7dd"/>
    <!-- handle -->
    <path d="M50 27.5 L62 28.5 Q64 28.7 64 30.5 L64 33.5 Q64 35.3 62 35.5 L50 36.5 Z" fill="#b45309"/>
    <rect x="53" y="30.5" width="1.6" height="1.6" rx="0.6" fill="#fdf6ed"/>
    <rect x="58" y="30.5" width="1.6" height="1.6" rx="0.6" fill="#fdf6ed"/>
  </g>
</svg>
